<svg width="448" height="366" viewBox="0 0 448 366" fill="none" xmlns="http://www.w3.org/2000/svg">
<g clip-path="url(#clip0_616_9460)">
<rect width="448" height="448" fill="#43B247"/>
<rect x="-29.1875" y="282.734" width="573.796" height="192.267" fill="#2252A0"/>
<path fill-rule="evenodd" clip-rule="evenodd" d="M71.3908 329.879C81.2232 329.879 90.7575 330.028 99.994 330.326L128.597 331.22C154.817 332.411 181.185 333.007 207.703 333.007C220.812 333.007 231.241 329.879 238.987 323.623C247.032 317.069 251.054 308.43 251.054 297.706C251.054 292.496 250.597 287.778 249.683 283.552C241.21 285.324 230.4 286.21 217.255 286.21H206.082L207.819 276.685C206.754 276.698 205.672 276.704 204.574 276.704H193.401L236.753 38.9803L231.734 33.0221C167.392 61.6368 113.553 79.7501 70.2171 87.3619C71.4089 99.2779 75.7292 109.406 83.1779 117.748C83.6167 118.274 84.0591 118.785 84.5051 119.28C88.1431 120.858 91.9653 121.647 95.9717 121.647C115.04 121.647 129.193 117.03 138.429 107.795L134.042 127.533C138.522 126.027 142.501 124.051 145.98 121.606C147.832 120.304 149.542 118.869 151.11 117.301L113.569 286.21H89.4348C79.0066 286.21 70.3661 289.785 63.5133 296.934C56.9584 304.084 53.6809 313.617 53.6809 325.533C53.6809 327.247 53.7356 328.92 53.8449 330.552C59.6935 330.103 65.5422 329.879 71.3908 329.879ZM49.7847 330.899C49.6657 329.148 49.6066 327.359 49.6066 325.533C49.6066 312.841 53.1173 302.244 60.5101 294.181L60.5406 294.147L60.5719 294.115C68.2376 286.117 77.962 282.135 89.4348 282.135H110.301L144.732 127.222C141.188 129.249 137.28 130.878 133.022 132.123L100.888 276.704H76.7539C66.3257 276.704 57.6852 280.279 50.8323 287.428C44.2774 294.578 41 304.111 41 316.027C41 321.687 41.5959 326.9 42.7877 331.666C45.12 331.375 47.4524 331.119 49.7847 330.899ZM248.652 279.605C247.763 276.734 246.627 274.128 245.244 271.789C237.328 274.597 226.238 276.202 211.975 276.604L210.967 282.135H217.255C230.203 282.135 240.63 281.262 248.652 279.605ZM229.002 29.7777L222.451 22C156.604 51.492 101.633 70.1108 57.5362 77.8561C58.728 89.7721 63.0483 99.9007 70.497 108.242C71.5908 109.554 72.7072 110.77 73.846 111.89C69.6105 104.754 67.0558 96.6933 66.163 87.7674L65.7866 84.0034L69.5123 83.349C112.147 75.8603 165.286 58.0491 229.002 29.7777Z" fill="white"/>
<path d="M111.979 340.31C102.745 340.011 93.2128 339.862 83.383 339.862C73.8511 339.862 64.3192 340.46 54.7872 341.655C53.5957 336.874 53 331.644 53 325.966C53 314.012 56.2766 304.448 62.8298 297.276C69.6809 290.103 78.3192 286.517 88.7447 286.517H112.872L150.404 117.069C141.17 126.333 127.021 130.966 107.957 130.966C98.4255 130.966 89.9362 126.483 82.4894 117.517C75.0426 109.149 70.7234 98.9885 69.5319 87.0345C113.617 79.2644 168.574 60.5862 234.404 31L248.702 48.0345L205.362 286.517H216.532C234.404 286.517 247.957 284.874 257.192 281.586C261.064 288.161 263 296.828 263 307.586C263 318.345 258.979 327.011 250.936 333.586C243.192 339.862 232.766 343 219.66 343C193.149 343 166.787 342.402 140.574 341.207L111.979 340.31Z" fill="url(#paint0_linear_616_9460)"/>
<ellipse opacity="0.5" cx="390.027" cy="368.544" rx="28.5203" ry="4.30068" fill="url(#paint1_linear_616_9460)"/>
<path opacity="0.5" d="M316.239 365.151L320.993 363.566L328.01 365.151H342.949L351.55 367.188L355.172 370.583V373.979L346.797 374.884L340.233 373.979L334.574 372.168L328.01 369.452H320.993L316.239 367.188V365.151Z" fill="url(#paint2_linear_616_9460)"/>
<ellipse opacity="0.5" cx="219.594" cy="357.909" rx="71.3007" ry="7.69595" fill="url(#paint3_linear_616_9460)"/>
<path d="M266.741 81.1888C265.696 81.1888 264.695 80.9811 263.738 80.5657C262.781 80.1377 261.938 79.5271 261.208 78.734L262.171 77.7332C262.851 78.4633 263.574 79.011 264.342 79.376C265.123 79.7411 265.941 79.9236 266.797 79.9236C267.49 79.9236 268.1 79.8166 268.629 79.6026C269.17 79.376 269.592 79.0676 269.894 78.6773C270.196 78.2745 270.347 77.8213 270.347 77.3177C270.347 76.6379 270.108 76.1155 269.63 75.7504C269.164 75.3854 268.39 75.1147 267.307 74.9384L265.4 74.6363C264.128 74.4223 263.19 74.0446 262.586 73.5033C261.982 72.962 261.68 72.2255 261.68 71.294C261.68 70.5638 261.875 69.9218 262.265 69.3679C262.655 68.814 263.197 68.3859 263.889 68.0838C264.594 67.7691 265.406 67.6117 266.325 67.6117C267.257 67.6117 268.169 67.7628 269.063 68.0649C269.97 68.367 270.794 68.8014 271.537 69.3679L270.706 70.5009C269.258 69.4056 267.779 68.858 266.268 68.858C265.639 68.858 265.085 68.9587 264.607 69.1601C264.128 69.349 263.757 69.6196 263.493 69.9721C263.228 70.312 263.096 70.7149 263.096 71.1807C263.096 71.7975 263.304 72.2696 263.719 72.5969C264.135 72.9242 264.821 73.1634 265.777 73.3145L267.666 73.6166C269.114 73.8558 270.165 74.2649 270.819 74.844C271.474 75.4105 271.801 76.2099 271.801 77.2422C271.801 78.0101 271.587 78.6962 271.159 79.3005C270.731 79.8922 270.133 80.358 269.365 80.6979C268.61 81.0252 267.735 81.1888 266.741 81.1888ZM276.956 81.1888C276.137 81.1888 275.508 80.9937 275.067 80.6034C274.627 80.2132 274.406 79.6467 274.406 78.9039V72.7291H272.367V71.5394H274.406V69.1413L275.785 68.7825V71.5394H278.636V72.7291H275.785V78.5452C275.785 79.0487 275.898 79.4138 276.125 79.6404C276.351 79.8544 276.723 79.9614 277.239 79.9614C277.503 79.9614 277.736 79.9425 277.938 79.9048C278.152 79.867 278.378 79.8041 278.617 79.7159V80.9433C278.378 81.0315 278.108 81.0944 277.805 81.1322C277.516 81.17 277.233 81.1888 276.956 81.1888Z" fill="white"/>
<path d="M254.89 110L262.801 90.7733H267.387L275.215 110H270.903L268.953 104.946H261.015L259.038 110H254.89ZM262.251 101.76H267.745L264.998 94.6736L262.251 101.76ZM281.746 110.275C280.648 110.275 279.668 110.037 278.807 109.561C277.965 109.066 277.297 108.389 276.802 107.528C276.326 106.667 276.088 105.679 276.088 104.562V95.6899H279.851V104.012C279.851 104.928 280.117 105.66 280.648 106.21C281.197 106.759 281.929 107.034 282.845 107.034C283.468 107.034 284.026 106.915 284.52 106.677C285.033 106.42 285.454 106.063 285.784 105.605V95.6899H289.547V110H285.784V108.846C284.685 109.799 283.339 110.275 281.746 110.275ZM299.676 115.878C298.577 115.878 297.515 115.759 296.49 115.521C295.464 115.301 294.54 114.981 293.716 114.559L295.034 111.648C295.821 112.033 296.59 112.316 297.341 112.499C298.092 112.683 298.843 112.774 299.593 112.774C300.71 112.774 301.553 112.536 302.12 112.06C302.706 111.584 302.999 110.87 302.999 109.918V108.791C301.827 109.652 300.518 110.082 299.072 110.082C297.717 110.082 296.49 109.762 295.391 109.121C294.311 108.462 293.441 107.574 292.782 106.457C292.141 105.34 291.82 104.104 291.82 102.749C291.82 101.394 292.141 100.167 292.782 99.0683C293.441 97.9696 294.329 97.0998 295.446 96.4589C296.563 95.7997 297.808 95.4701 299.181 95.4701C299.877 95.4701 300.555 95.5708 301.214 95.7723C301.873 95.9737 302.487 96.2575 303.054 96.6237V95.6899H306.762V109.973C306.762 111.859 306.149 113.314 304.922 114.34C303.713 115.365 301.965 115.878 299.676 115.878ZM299.648 106.896C300.344 106.896 300.976 106.786 301.544 106.567C302.111 106.329 302.596 105.999 302.999 105.578V99.9747C302.596 99.5718 302.102 99.2605 301.516 99.0408C300.948 98.8028 300.335 98.6837 299.676 98.6837C298.888 98.6837 298.183 98.8668 297.561 99.2331C296.938 99.581 296.444 100.066 296.078 100.689C295.711 101.293 295.528 101.98 295.528 102.749C295.528 103.536 295.702 104.241 296.05 104.864C296.416 105.486 296.911 105.981 297.533 106.347C298.174 106.713 298.879 106.896 299.648 106.896ZM315.275 110.275C314.176 110.275 313.197 110.037 312.336 109.561C311.494 109.066 310.825 108.389 310.331 107.528C309.855 106.667 309.617 105.679 309.617 104.562V95.6899H313.38V104.012C313.38 104.928 313.645 105.66 314.176 106.21C314.726 106.759 315.458 107.034 316.374 107.034C316.996 107.034 317.555 106.915 318.049 106.677C318.562 106.42 318.983 106.063 319.313 105.605V95.6899H323.075V110H319.313V108.846C318.214 109.799 316.868 110.275 315.275 110.275ZM331.364 110.275C330.046 110.275 328.828 110.11 327.711 109.78C326.594 109.432 325.624 108.938 324.8 108.297L326.667 105.798C327.491 106.347 328.279 106.759 329.03 107.034C329.799 107.308 330.559 107.446 331.309 107.446C332.152 107.446 332.82 107.308 333.314 107.034C333.827 106.741 334.083 106.365 334.083 105.907C334.083 105.541 333.937 105.248 333.644 105.029C333.369 104.809 332.921 104.653 332.298 104.562L329.551 104.15C328.123 103.93 327.043 103.472 326.31 102.776C325.578 102.062 325.212 101.128 325.212 99.9747C325.212 99.0408 325.45 98.2443 325.926 97.5851C326.42 96.9076 327.107 96.3857 327.986 96.0195C328.883 95.6349 329.945 95.4427 331.172 95.4427C332.216 95.4427 333.232 95.5892 334.221 95.8821C335.228 96.1751 336.171 96.6237 337.05 97.228L335.237 99.6725C334.45 99.1781 333.699 98.8211 332.985 98.6013C332.271 98.3816 331.547 98.2717 330.815 98.2717C330.137 98.2717 329.588 98.3999 329.167 98.6563C328.764 98.9126 328.563 99.2514 328.563 99.6725C328.563 100.057 328.709 100.359 329.002 100.579C329.295 100.799 329.799 100.954 330.513 101.046L333.259 101.458C334.669 101.659 335.75 102.117 336.5 102.831C337.251 103.527 337.627 104.433 337.627 105.55C337.627 106.466 337.352 107.281 336.803 107.995C336.253 108.691 335.512 109.249 334.578 109.67C333.644 110.073 332.573 110.275 331.364 110.275ZM346.016 110.22C344.423 110.22 343.215 109.863 342.391 109.149C341.585 108.416 341.182 107.354 341.182 105.962V98.8211H338.243V95.6899H341.182V92.0368L344.945 91.1853V95.6899H349.038V98.8211H344.945V105.193C344.945 105.853 345.091 106.329 345.384 106.622C345.677 106.896 346.19 107.034 346.923 107.034C347.289 107.034 347.618 107.015 347.911 106.979C348.223 106.924 348.561 106.832 348.928 106.704V109.808C348.543 109.936 348.067 110.037 347.499 110.11C346.932 110.183 346.437 110.22 346.016 110.22Z" fill="white"/>
</g>
<defs>
<linearGradient id="paint0_linear_616_9460" x1="158" y1="31" x2="158" y2="343" gradientUnits="userSpaceOnUse">
<stop stop-color="#0964BE"/>
<stop offset="1" stop-color="#074A8D"/>
</linearGradient>
<linearGradient id="paint1_linear_616_9460" x1="366.26" y1="370.128" x2="419.905" y2="370.128" gradientUnits="userSpaceOnUse">
<stop/>
<stop offset="1" stop-opacity="0"/>
</linearGradient>
<linearGradient id="paint2_linear_616_9460" x1="319.484" y1="371.31" x2="356.099" y2="371.31" gradientUnits="userSpaceOnUse">
<stop/>
<stop offset="1" stop-opacity="0"/>
</linearGradient>
<linearGradient id="paint3_linear_616_9460" x1="160.177" y1="360.744" x2="294.29" y2="360.744" gradientUnits="userSpaceOnUse">
<stop/>
<stop offset="1" stop-opacity="0"/>
</linearGradient>
<clipPath id="clip0_616_9460">
<rect width="448" height="448" fill="white"/>
</clipPath>
</defs>
</svg>
